<svg xmlns="http://www.w3.org/2000/svg" width="100%" height="100%" viewBox="0 0 40 40" fill-rule="evenodd" stroke-linejoin="round" stroke-miterlimit="2" xmlns:v="https://vecta.io/nano"><path d="M34.981 35.046h-30v-30h30v30zM15.136 6.296H6.231L6.23 10.33l2.436 2.436 6.47-6.47zm2.97 0h-1.202L9.55 13.65l7.955 7.955 7.955-7.955-7.354-7.354zm14.708 0H19.873l6.471 6.47 6.47-6.47zm.917 13.856V7.147l-6.504 6.503 6.504 6.502zm0 2.905V21.92l-7.387-7.386-7.956 7.955 7.956 7.955 7.387-7.387zm-4.035 10.739h4.035v-8.971l-6.504 6.502 2.469 2.469zm-4.936 0h3.169l-1.585-1.585-1.584 1.585zm-12.741 0h10.972l2.469-2.469-7.955-7.955-7.955 7.955 2.468 2.469zm-4.937 0h3.169l-1.584-1.585-1.585 1.585zm-.851-4.02v3.103l1.552-1.552-1.552-1.551zm0-12.807v11.04l2.436 2.435 7.955-7.955-7.955-7.955-2.436 2.435zm0-4.87v3.102l1.552-1.551-1.552-1.551z"/></svg>