<?xml version="1.0" encoding="UTF-8" standalone="no"?><!DOCTYPE svg PUBLIC "-//W3C//DTD SVG 1.1//EN" "http://www.w3.org/Graphics/SVG/1.1/DTD/svg11.dtd"><svg width="100%" height="100%" viewBox="0 0 40 40" version="1.1" xmlns="http://www.w3.org/2000/svg" xmlns:xlink="http://www.w3.org/1999/xlink" xml:space="preserve" xmlns:serif="http://www.serif.com/" style="fill-rule:evenodd;clip-rule:evenodd;stroke-linejoin:round;stroke-miterlimit:2;"><path d="M33.565,38.496l-27.121,0.004c-4.423,0.007 -7.402,-4.742 -5.234,-8.747l13.542,-25.133c2.241,-4.155 8.199,-4.16 10.446,-0.011l0.002,0.003l13.588,25.131c2.167,4.015 -0.799,8.753 -5.223,8.753Zm-0,-4c1.442,0 2.41,-1.544 1.703,-2.852l-13.587,-25.13c-0.733,-1.353 -2.677,-1.352 -3.408,0.003l-13.541,25.133c-0.708,1.307 0.265,2.852 1.705,2.85l27.128,-0.004Z" style="fill:#0b0c0c;"/><path d="M33.565,34.496l-27.128,0.004c-1.44,0.002 -2.413,-1.543 -1.705,-2.85l13.541,-25.133c0.731,-1.355 2.675,-1.356 3.408,-0.003l13.587,25.13c0.707,1.308 -0.261,2.852 -1.703,2.852Z" style="fill:#f18700;"/><path d="M33.565,36.496l-27.125,0.004c-2.931,0.004 -4.907,-3.142 -3.469,-5.799l13.542,-25.132c1.486,-2.756 5.436,-2.759 6.927,-0.007l13.588,25.131c1.437,2.661 -0.53,5.803 -3.463,5.803Zm-0,-2c1.442,0 2.41,-1.544 1.703,-2.852l-13.587,-25.13c-0.733,-1.353 -2.677,-1.352 -3.408,0.003l-13.541,25.133c-0.708,1.307 0.265,2.852 1.705,2.85l27.128,-0.004Z" style="fill:#fff;"/><path d="M6.947,32.25l26.105,-0.004l-13.074,-24.181l-13.031,24.185Z" style="fill:#feffff;"/><path d="M29.977,28.661l1.398,2.586l-22.754,0.003c0,-0 0.651,-1.166 1.425,-2.568c0.875,0.779 2.108,1.457 3.287,0.955c0.563,-0.24 0.936,-0.89 1.627,-0.89c0.982,-0 1.467,1.075 2.52,1.075c1.054,-0 1.538,-1.075 2.52,-1.075c0.982,-0 1.467,1.075 2.52,1.075c1.053,-0 1.538,-1.075 2.52,-1.075c0.691,-0 1.064,0.65 1.627,0.89c1.188,0.506 2.434,-0.187 3.31,-0.976Z" style="fill:#00a4cd;"/><path d="M15.447,27.827l-0,-3.436l-0.482,0.577c-0.492,0.592 -1.307,-0.217 -0.846,-0.766l2.182,-2.613l0,-2.639l1.313,-0l0,1.069l1.819,-2.174c0.223,-0.272 0.623,-0.265 0.847,0.001l5.26,6.327c0.462,0.559 -0.367,1.347 -0.849,0.763l-0.481,-0.578l0,3.624c-0.562,0.317 -1.005,0.84 -1.69,0.84c-0.982,-0 -1.467,-1.075 -2.52,-1.075c-1.053,-0 -1.538,1.075 -2.52,1.075c-0.817,-0 -1.29,-0.745 -2.033,-0.995Zm7.921,-1.496l-0,-1.9l-1.678,0l-0,1.9l1.678,0Z" style="fill:#181c1b;"/></svg>