<?xml version="1.0" encoding="UTF-8" standalone="no"?><!DOCTYPE svg PUBLIC "-//W3C//DTD SVG 1.1//EN" "http://www.w3.org/Graphics/SVG/1.1/DTD/svg11.dtd"><svg width="100%" height="100%" viewBox="0 0 38 38" version="1.1" xmlns="http://www.w3.org/2000/svg" xmlns:xlink="http://www.w3.org/1999/xlink" xml:space="preserve" xmlns:serif="http://www.serif.com/" style="fill-rule:evenodd;clip-rule:evenodd;stroke-linecap:round;stroke-miterlimit:1.5;"><path d="M19,0.5c10.21,0 18.5,8.29 18.5,18.5c-0,10.21 -8.29,18.5 -18.5,18.5c-10.21,-0 -18.5,-8.29 -18.5,-18.5c-0,-10.21 8.29,-18.5 18.5,-18.5Zm-0,4c-8.003,0 -14.5,6.497 -14.5,14.5c-0,8.003 6.497,14.5 14.5,14.5c8.003,-0 14.5,-6.497 14.5,-14.5c-0,-8.003 -6.497,-14.5 -14.5,-14.5Z" style="fill:#0b0c0c;"/><circle cx="19" cy="19" r="14.5" style="fill:#5694ca;"/><path d="M19,2.5c9.107,0 16.5,7.393 16.5,16.5c-0,9.107 -7.393,16.5 -16.5,16.5c-9.107,-0 -16.5,-7.393 -16.5,-16.5c-0,-9.107 7.393,-16.5 16.5,-16.5Zm-0,2c-8.003,0 -14.5,6.497 -14.5,14.5c-0,8.003 6.497,14.5 14.5,14.5c8.003,-0 14.5,-6.497 14.5,-14.5c-0,-8.003 -6.497,-14.5 -14.5,-14.5Z" style="fill:#fff;"/><g><path d="M14.428,16.832c0.192,-0 0.551,0.031 0.551,0.003c-0,-1.932 1.568,-3.5 3.5,-3.5c1.487,-0 2.759,0.929 3.265,2.239c0.327,-0.156 0.692,-0.244 1.078,-0.244c1.381,0 2.502,1.121 2.502,2.503c0,1.381 -1.121,2.502 -2.502,2.502l-8.394,-0c-0.967,-0 -1.752,-0.785 -1.752,-1.752c-0,-0.967 0.785,-1.751 1.752,-1.751Z" style="fill:#feffff;"/><path d="M15.5,22.665l0,2" style="fill:none;stroke:#feffff;stroke-width:1.5px;"/><path d="M19,22.665l0,2" style="fill:none;stroke:#feffff;stroke-width:1.5px;"/><path d="M22.5,22.665l0,2" style="fill:none;stroke:#feffff;stroke-width:1.5px;"/></g></svg>