<?xml version="1.0" encoding="UTF-8" standalone="no"?><!DOCTYPE svg PUBLIC "-//W3C//DTD SVG 1.1//EN" "http://www.w3.org/Graphics/SVG/1.1/DTD/svg11.dtd"><svg width="100%" height="100%" viewBox="0 0 38 38" version="1.1" xmlns="http://www.w3.org/2000/svg" xmlns:xlink="http://www.w3.org/1999/xlink" xml:space="preserve" xmlns:serif="http://www.serif.com/" style="fill-rule:evenodd;clip-rule:evenodd;stroke-linecap:round;stroke-miterlimit:1.5;"><path d="M19,0.5c10.21,-0 18.5,8.29 18.5,18.5c-0,10.21 -8.29,18.5 -18.5,18.5c-10.21,0 -18.5,-8.29 -18.5,-18.5c-0,-10.21 8.29,-18.5 18.5,-18.5Zm-0,4c-8.003,-0 -14.5,6.497 -14.5,14.5c-0,8.003 6.497,14.5 14.5,14.5c8.003,0 14.5,-6.497 14.5,-14.5c-0,-8.003 -6.497,-14.5 -14.5,-14.5Z" style="fill:#0b0c0c;"/><circle cx="19" cy="19" r="14.5" style="fill:#5694ca;"/><path d="M19,2.5c9.107,-0 16.5,7.393 16.5,16.5c-0,9.107 -7.393,16.5 -16.5,16.5c-9.107,0 -16.5,-7.393 -16.5,-16.5c-0,-9.107 7.393,-16.5 16.5,-16.5Zm-0,2c-8.003,-0 -14.5,6.497 -14.5,14.5c-0,8.003 6.497,14.5 14.5,14.5c8.003,0 14.5,-6.497 14.5,-14.5c-0,-8.003 -6.497,-14.5 -14.5,-14.5Z" style="fill:#fff;"/><g><path d="M13.697,14.475c0.393,0.389 0.886,0.732 1.767,0.732c1.792,-0 1.711,-1.464 3.536,-1.464c1.825,0 1.71,1.464 3.536,1.464c0.826,-0 1.24,-0.3 1.767,-0.732" style="fill:none;stroke:#feffff;stroke-width:1.5px;"/><path d="M13.697,19c0.393,0.389 0.886,0.732 1.767,0.732c1.792,-0 1.711,-1.464 3.536,-1.464c1.825,0 1.71,1.464 3.536,1.464c0.826,-0 1.24,-0.3 1.767,-0.732" style="fill:none;stroke:#feffff;stroke-width:1.5px;"/><path d="M13.697,23.525c0.393,0.389 0.886,0.732 1.767,0.732c1.792,-0 1.711,-1.464 3.536,-1.464c1.825,0 1.71,1.464 3.536,1.464c0.826,-0 1.24,-0.3 1.767,-0.732" style="fill:none;stroke:#feffff;stroke-width:1.5px;"/></g></svg>