<?xml version="1.0" encoding="UTF-8" standalone="no"?><!DOCTYPE svg PUBLIC "-//W3C//DTD SVG 1.1//EN" "http://www.w3.org/Graphics/SVG/1.1/DTD/svg11.dtd"><svg width="100%" height="100%" viewBox="0 0 40 40" version="1.1" xmlns="http://www.w3.org/2000/svg" xmlns:xlink="http://www.w3.org/1999/xlink" xml:space="preserve" xmlns:serif="http://www.serif.com/" style="fill-rule:evenodd;clip-rule:evenodd;stroke-linejoin:round;stroke-miterlimit:2;"><path d="M33.565,38.496l-27.121,0.004c-4.423,0.007 -7.402,-4.742 -5.234,-8.747l13.542,-25.133c2.241,-4.155 8.199,-4.16 10.446,-0.011l0.002,0.003l13.588,25.131c2.167,4.015 -0.799,8.753 -5.223,8.753Zm-0,-4c1.442,0 2.41,-1.544 1.703,-2.852l-13.587,-25.13c-0.733,-1.353 -2.677,-1.352 -3.408,0.003l-13.541,25.133c-0.708,1.307 0.265,2.852 1.705,2.85l27.128,-0.004Z" style="fill:#0b0c0c;"/><path d="M33.565,34.496l-27.128,0.004c-1.44,0.002 -2.413,-1.543 -1.705,-2.85l13.541,-25.133c0.731,-1.355 2.675,-1.356 3.408,-0.003l13.587,25.13c0.707,1.308 -0.261,2.852 -1.703,2.852Z" style="fill:#e3000f;"/><path d="M33.565,36.496l-27.125,0.004c-2.931,0.004 -4.907,-3.142 -3.469,-5.799l13.542,-25.132c1.486,-2.756 5.436,-2.759 6.927,-0.007l13.588,25.131c1.437,2.661 -0.53,5.803 -3.463,5.803Zm-0,-2c1.442,0 2.41,-1.544 1.703,-2.852l-13.587,-25.13c-0.733,-1.353 -2.677,-1.352 -3.408,0.003l-13.541,25.133c-0.708,1.307 0.265,2.852 1.705,2.85l27.128,-0.004Z" style="fill:#fff;"/><path d="M6.947,32.25l26.105,-0.004l-13.074,-24.181l-13.031,24.185Z" style="fill:#feffff;"/><path d="M29.977,28.661l1.398,2.586l-22.754,0.003c0,-0 0.651,-1.166 1.425,-2.568c0.875,0.779 2.108,1.457 3.287,0.955c0.563,-0.24 0.936,-0.89 1.627,-0.89c0.982,-0 1.467,1.075 2.52,1.075c1.054,-0 1.538,-1.075 2.52,-1.075c0.982,-0 1.467,1.075 2.52,1.075c1.053,-0 1.538,-1.075 2.52,-1.075c0.691,-0 1.064,0.65 1.627,0.89c1.188,0.506 2.434,-0.187 3.31,-0.976Zm-19.433,-0.884c0.242,-0.44 0.485,-0.884 0.715,-1.307c0.778,0.612 1.78,1.077 2.761,0.659c0.475,-0.202 0.861,-0.797 1.444,-0.797c0.878,0 1.317,0.968 2.268,0.968c0.951,-0 1.391,-0.968 2.268,-0.968c0.877,0 1.317,0.968 2.268,0.968c0.951,-0 1.39,-0.968 2.268,-0.968c0.583,0 0.969,0.595 1.444,0.797c0.996,0.424 2.015,-0.061 2.797,-0.687l0.707,1.307c-0.239,0.233 -0.472,0.486 -0.763,0.648c-0.361,0.2 -0.75,0.417 -1.161,0.425c-0.968,0.019 -1.478,-1.075 -2.52,-1.075c-1.054,-0 -1.538,1.075 -2.52,1.075c-0.982,-0 -1.467,-1.075 -2.52,-1.075c-1.053,-0 -1.538,1.075 -2.52,1.075c-0.982,-0 -1.466,-1.075 -2.52,-1.075c-1.62,-0 -1.913,1.626 -3.661,0.663c-0.287,-0.158 -0.525,-0.397 -0.755,-0.633Zm17.751,-2.227c-0.2,0.184 -0.41,0.367 -0.652,0.489c-1.36,0.684 -1.811,-0.707 -3.107,-0.707c-0.951,0 -1.391,0.968 -2.268,0.968c-0.877,-0 -1.317,-0.968 -2.268,-0.968c-0.951,0 -1.39,0.968 -2.268,0.968c-0.877,-0 -1.317,-0.968 -2.268,-0.968c-0.971,0 -1.365,0.919 -2.268,0.968c-0.506,0.027 -1.11,-0.407 -1.457,-0.719c0.306,-0.571 0.558,-1.049 0.706,-1.348c0.67,0.461 1.467,0.749 2.261,0.411c0.385,-0.164 0.785,-0.704 1.262,-0.704c0.774,-0 1.168,0.86 2.016,0.86c0.849,-0 1.243,-0.86 2.016,-0.86c0.773,-0 1.167,0.86 2.016,0.86c0.848,-0 1.243,-0.86 2.016,-0.86c0.477,-0 0.877,0.54 1.262,0.704c0.802,0.341 1.608,0.044 2.281,-0.425l0.72,1.331Z" style="fill:#00a4cd;"/><path d="M15.447,23.013l-0,-0.983l-0.482,0.577c-0.492,0.592 -1.307,-0.218 -0.846,-0.766l2.182,-2.613l0,-2.64l1.313,0l0,1.07l1.819,-2.174c0.223,-0.272 0.623,-0.265 0.847,0.001l5.26,6.327c0.462,0.558 -0.367,1.347 -0.849,0.763l-0.481,-0.578l0,0.951c-0.283,-0.026 -0.572,0.01 -0.842,0.112l-0,-0.99l-1.678,0l-0,1.668c-0.852,-0.335 -0.736,-0.655 -1.718,-0.798c-0.785,-0.115 -1.218,0.958 -1.988,0.86c-1.009,-0.129 -1.38,-1.119 -2.537,-0.787Z" style="fill:#e3000f;"/></svg>