<?xml version="1.0" encoding="UTF-8" standalone="no"?><!DOCTYPE svg PUBLIC "-//W3C//DTD SVG 1.1//EN" "http://www.w3.org/Graphics/SVG/1.1/DTD/svg11.dtd"><svg width="100%" height="100%" viewBox="0 0 24 24" version="1.1" xmlns="http://www.w3.org/2000/svg" xmlns:xlink="http://www.w3.org/1999/xlink" xml:space="preserve" xmlns:serif="http://www.serif.com/" style="fill-rule:evenodd;clip-rule:evenodd;stroke-linejoin:round;stroke-miterlimit:2;"><path d="M12,0.5c6.347,-0 11.5,5.153 11.5,11.5c0,6.347 -5.153,11.5 -11.5,11.5c-6.347,0 -11.5,-5.153 -11.5,-11.5c-0,-6.347 5.153,-11.5 11.5,-11.5Zm0,4c-4.139,0 -7.5,3.361 -7.5,7.5c-0,4.139 3.361,7.5 7.5,7.5c4.139,0 7.5,-3.361 7.5,-7.5c0,-4.139 -3.361,-7.5 -7.5,-7.5Z" style="fill:#0b0c0c;"/><path d="M12,2.5c5.243,0 9.5,4.257 9.5,9.5c0,5.243 -4.257,9.5 -9.5,9.5c-5.243,0 -9.5,-4.257 -9.5,-9.5c-0,-5.243 4.257,-9.5 9.5,-9.5Zm0,2c-4.139,0 -7.5,3.361 -7.5,7.5c-0,4.139 3.361,7.5 7.5,7.5c4.139,0 7.5,-3.361 7.5,-7.5c0,-4.139 -3.361,-7.5 -7.5,-7.5Z" style="fill:#fff;"/><circle cx="12" cy="12" r="7.5" style="fill:#feffff;"/><path d="M12,4.5c4.139,0 7.5,3.361 7.5,7.5c0,4.139 -3.361,7.5 -7.5,7.5c-4.139,0 -7.5,-3.361 -7.5,-7.5c-0,-4.139 3.361,-7.5 7.5,-7.5Zm0,2c-3.036,0 -5.5,2.464 -5.5,5.5c-0,3.036 2.464,5.5 5.5,5.5c3.036,-0 5.5,-2.464 5.5,-5.5c0,-3.036 -2.464,-5.5 -5.5,-5.5Z" style="fill:#5694ca;"/></svg>